<?xml version="1.0" encoding="utf-8"?>
<!-- Generator: Adobe Illustrator 19.0.1, SVG Export Plug-In . SVG Version: 6.00 Build 0)  -->
<svg version="1.1" xmlns="http://www.w3.org/2000/svg" xmlns:xlink="http://www.w3.org/1999/xlink" x="0px" y="0px"
	 viewBox="0 0 25.7 25.7" style="enable-background:new 0 0 25.7 25.7;" xml:space="preserve">
<style type="text/css">
	.st0{opacity:0;}
	.st1{opacity:0.17;fill:#29C2E4;}
	.st2{fill:#FFFFFF;}
	.st3{opacity:0;fill:none;}
</style>
<g>
	<rect x="-18.5" y="41" style="fill:none;" width="64.2" height="22.4"/>
	<text transform="matrix(1.1087 0 0 1 -15.7134 43.2534)" style="display:none;"><tspan x="0" y="0" style="display:inline;fill:#908F8F; font-family:'Raleway-Regular'; font-size:3.1432px;">Lorem ipsum dolor sit amet, consectetur </tspan><tspan x="1" y="5.1" style="display:inline;fill:#908F8F; font-family:'Raleway-Regular'; font-size:3.1432px;">adipiscing elit, sed do eiusmod tempor </tspan><tspan x="-2.4" y="10.3" style="display:inline;fill:#908F8F; font-family:'Raleway-Regular'; font-size:3.1432px;">incididunt ut labore et dolore magna aliqua.</tspan></text>
	<g class="st0">
		<path class="st1" d="M0,22c0,2.1,1.7,3.7,3.7,3.7H22c2.1,0,3.7-1.7,3.7-3.7V3.7C25.7,1.7,24,0,22,0H3.7C1.7,0,0,1.7,0,3.7V22z"/>
		<g>
			<g>
				<g>
					
						<text transform="matrix(1.024 0 0 1 -9.7036 36.8774)" style="fill:#29C2E4; font-family:'Raleway-Bold'; font-size:4.5402px;">FULLY COSTOMIZABLE</text>
				</g>
			</g>
		</g>
	</g>
	<g>
		<g>
			<g>
				<g>
					<path class="st2" d="M18.2,14.1H7.3c-0.4,0-0.8,0.3-0.9,0.6l-0.9,2.7c-0.1,0.3-0.1,0.6,0.1,0.9c0.2,0.2,0.5,0.4,0.8,0.4h12.8
						c0.3,0,0.6-0.1,0.8-0.4c0.2-0.2,0.2-0.6,0.1-0.9l-0.9-2.7C19,14.3,18.6,14.1,18.2,14.1L18.2,14.1z"/>
				</g>
				<rect x="11.9" y="17.9" class="st3" width="1.6" height="0.3"/>
			</g>
			<path class="st2" d="M18.2,14H7.3V8h10.9 M18.2,7.1H7.3C6.8,7.1,6.3,7.5,6.3,8v6.9c0,0,0.4,0,0.9,0h10.9c0.5,0,0.9,0,0.9,0V8
				C19.1,7.5,18.7,7.1,18.2,7.1L18.2,7.1z"/>
		</g>
	</g>
</g>
</svg>
