<?xml version="1.0" encoding="utf-8"?>
<!-- Generator: Adobe Illustrator 19.0.1, SVG Export Plug-In . SVG Version: 6.00 Build 0)  -->
<svg version="1.1" id="Слой_1" xmlns="http://www.w3.org/2000/svg" xmlns:xlink="http://www.w3.org/1999/xlink" x="0px" y="0px"
	 viewBox="0 0 7.8 8" style="enable-background:new 0 0 7.8 8;" xml:space="preserve">
<style type="text/css">
	.st0{fill:#FFFFFF;}
	.st1{fill:#323332;}
	.st2{opacity:0;}
</style>
<g>
	<g>
		<g>
			<path class="st0" d="M19.8,6.6c0,0.8-0.6,1.4-1.4,1.4h-5.1C12.6,8,12,7.4,12,6.6V1.4C12,0.6,12.6,0,13.3,0h5.1
				c0.8,0,1.4,0.6,1.4,1.4V6.6z"/>
			<g>
				<g>
					<path class="st1" d="M18.8,5.9L18,6.6l-1.8-1.8c-0.2-0.2,0.5-0.9,0.7-0.7L18.8,5.9z"/>
				</g>
				<g>
					<path class="st1" d="M15.6,5.3c-0.5,0-1-0.2-1.3-0.6c-0.7-0.7-0.7-1.9,0-2.7c0.4-0.4,0.8-0.6,1.3-0.6c0.5,0,1,0.2,1.3,0.6
						c0.7,0.7,0.7,1.9,0,2.7C16.6,5.2,16.1,5.3,15.6,5.3z M15.6,2.5c-0.3,0-0.5,0.1-0.7,0.3c-0.4,0.4-0.4,1,0,1.4
						c0.2,0.2,0.4,0.3,0.7,0.3c0.3,0,0.5-0.1,0.7-0.3c0.4-0.4,0.4-1,0-1.4C16.1,2.6,15.9,2.5,15.6,2.5z"/>
				</g>
				<path class="st0" d="M15.6,2.5c0.3,0,0.5,0.1,0.7,0.3c0.4,0.4,0.4,1,0,1.4c-0.2,0.2-0.4,0.3-0.7,0.3c-0.3,0-0.5-0.1-0.7-0.3
					c-0.4-0.4-0.4-1,0-1.4C15.1,2.6,15.3,2.5,15.6,2.5"/>
			</g>
		</g>
	</g>
	<g>
		<g class="st2">
			<g>
				<g>
					<path class="st0" d="M7.8,6.6C7.8,7.4,7.2,8,6.5,8H1.4C0.6,8,0,7.4,0,6.6V1.4C0,0.6,0.6,0,1.4,0h5.1c0.7,0,1.4,0.6,1.4,1.4V6.6
						z"/>
				</g>
			</g>
		</g>
		<path class="st1" d="M5.1,1.6l-1,1c-0.3,0.3-0.3,0.7,0,1L3.8,3.9C3.5,3.7,3,3.7,2.7,4l-1,1c-0.3,0.3-0.3,0.8,0,1.1L2,6.4
			c0.3,0.3,0.8,0.3,1.1,0l1-1c0.3-0.3,0.3-0.7,0-1l0.2-0.2c0.3,0.3,0.8,0.2,1,0l1-1c0.3-0.3,0.3-0.8,0-1.1L6.1,1.6
			C5.8,1.3,5.4,1.3,5.1,1.6z M3.7,5l-1,1C2.6,6.1,2.5,6.1,2.4,6L2.1,5.7C2,5.6,2,5.5,2.1,5.4l1-1c0.1-0.1,0.2-0.1,0.2,0L3.2,4.5
			c-0.1,0.1-0.1,0.3,0,0.4C3.3,5,3.5,5,3.6,4.9l0.2-0.2C3.8,4.8,3.8,4.9,3.7,5z M6.1,2.3c0.1,0.1,0.1,0.2,0,0.3l-1,1
			C5,3.7,4.9,3.7,4.8,3.7L5,3.5c0.1-0.1,0.1-0.3,0-0.4C4.9,3,4.7,3,4.6,3.1L4.4,3.3c0-0.1,0-0.2,0-0.2l1-1c0.1-0.1,0.2-0.1,0.3,0
			L6.1,2.3z"/>
	</g>
</g>
</svg>
