<?xml version="1.0" encoding="utf-8"?>
<!-- Generator: Adobe Illustrator 19.0.1, SVG Export Plug-In . SVG Version: 6.00 Build 0)  -->
<svg version="1.1" id="Слой_1" xmlns="http://www.w3.org/2000/svg" xmlns:xlink="http://www.w3.org/1999/xlink" x="0px" y="0px"
	 viewBox="0 0 25.7 25.7" style="enable-background:new 0 0 25.7 25.7;" xml:space="preserve">
<style type="text/css">
	.st0{opacity:0;fill:#323332;}
	.st1{display:none;}
	.st2{display:inline;}
	.st3{fill:#FFFFFF;}
</style>
<g>
	<path class="st0" d="M0,22c0,2.1,1.7,3.7,3.7,3.7H22c2.1,0,3.7-1.7,3.7-3.7V3.7C25.7,1.7,24,0,22,0H3.7C1.7,0,0,1.7,0,3.7V22z"/>
	<g class="st1">
		<g class="st2">
			<text transform="matrix(1.024 0 0 1 -5.0986 37.1797)" style="fill:#042B30; font-family:'Raleway-Bold'; font-size:4.5402px;">WORK AND WORK</text>
		</g>
		<rect x="-19.3" y="40.8" style="display:inline;fill:none;" width="64.2" height="22.4"/>
		<text transform="matrix(1.1087 0 0 1 -16.4419 42.9922)" class="st2"><tspan x="0" y="0" style="fill:#908F8F; font-family:'Raleway-Regular'; font-size:3.1432px;">Lorem ipsum dolor sit amet, consectetur </tspan><tspan x="1" y="5.1" style="fill:#908F8F; font-family:'Raleway-Regular'; font-size:3.1432px;">adipiscing elit, sed do eiusmod tempor </tspan><tspan x="-2.4" y="10.3" style="fill:#908F8F; font-family:'Raleway-Regular'; font-size:3.1432px;">incididunt ut labore et dolore magna aliqua.</tspan></text>
	</g>
	<g>
		<path class="st3" d="M15.2,15.7C15.2,15.7,15.2,15.7,15.2,15.7L15.2,15.7c0-0.2,0-0.4,0-0.6c0-0.1-0.2-0.3-0.3-0.3
			c-0.5,0-0.9-0.3-1.1-0.7c-0.2-0.4-0.1-0.9,0.3-1.3c0.1-0.1,0.1-0.3,0-0.4c-0.2-0.3-0.5-0.6-0.8-0.8c-0.1-0.1-0.3-0.1-0.4,0
			c-0.3,0.3-0.8,0.5-1.3,0.3C11.3,11.9,11,11.5,11,11c0-0.1-0.1-0.3-0.2-0.3c-0.2,0-0.4,0-0.6,0l0,0c0,0,0,0,0,0c-0.2,0-0.3,0-0.5,0
			c0,0,0,0,0,0c0,0,0,0,0,0c0,0,0,0,0,0c-0.1,0-0.3,0.1-0.2,0.3c0,0.4-0.1,0.7-0.4,0.9C8.9,12,8.8,12,8.7,12.1c-0.4,0.2-1,0-1.3-0.3
			c-0.1-0.1-0.3-0.1-0.4,0c0,0,0,0,0,0c0,0,0,0,0,0c-0.1,0.1-0.2,0.2-0.3,0.3c0,0-0.1,0.1-0.1,0.1c-0.1,0.1-0.1,0.1-0.2,0.2
			c-0.1,0.1-0.1,0.2-0.2,0.2c0,0,0,0,0,0c0,0,0,0,0,0c-0.1,0.1-0.1,0.3,0,0.4c0.3,0.3,0.5,0.8,0.3,1.3c0,0.1-0.1,0.2-0.2,0.3
			c-0.2,0.2-0.5,0.4-0.9,0.4c-0.2,0-0.3,0.1-0.3,0.2c0,0,0,0,0,0l0,0c0,0,0,0,0,0.1c0,0.2,0,0.3,0,0.5c0,0.2,0,0.3,0,0.5
			c0,0,0,0,0,0.1v0c0,0,0,0,0,0c0,0.1,0.1,0.3,0.3,0.2c0.4,0,0.7,0.1,0.9,0.4c0.1,0.1,0.1,0.2,0.2,0.3c0.2,0.4,0.1,0.9-0.3,1.3
			c-0.1,0.1-0.1,0.3,0,0.4c0,0,0,0,0,0c0,0,0,0,0,0c0.1,0.1,0.1,0.2,0.2,0.2c0.1,0.1,0.1,0.1,0.2,0.2c0,0,0.1,0.1,0.1,0.1
			c0.1,0.1,0.2,0.2,0.3,0.3c0,0,0,0,0,0c0,0,0,0,0,0c0.1,0.1,0.3,0.1,0.4,0c0.3-0.3,0.8-0.5,1.3-0.3c0.1,0,0.2,0.1,0.3,0.2
			c0.3,0.2,0.4,0.6,0.4,0.9c0,0.1,0.1,0.3,0.2,0.3c0,0,0,0,0,0c0,0,0,0,0,0c0,0,0,0,0,0c0.2,0,0.3,0,0.5,0c0,0,0,0,0,0l0,0
			c0.2,0,0.4,0,0.6,0c0.1,0,0.3-0.1,0.2-0.3c0-0.5,0.3-0.9,0.7-1.1c0.4-0.2,1-0.1,1.3,0.3c0.1,0.1,0.3,0.1,0.4,0
			c0.3-0.2,0.6-0.5,0.8-0.8c0.1-0.1,0.1-0.3,0-0.4c-0.3-0.3-0.5-0.8-0.3-1.3c0.2-0.4,0.6-0.7,1.1-0.7c0.1,0,0.3-0.1,0.3-0.2
			C15.2,16.1,15.2,16,15.2,15.7L15.2,15.7C15.2,15.8,15.2,15.7,15.2,15.7z M10.2,17.9c-1.2,0-2.2-1-2.2-2.2c0-1.2,1-2.2,2.2-2.2
			s2.2,1,2.2,2.2C12.4,16.9,11.4,17.9,10.2,17.9z"/>
		<path class="st3" d="M17.9,8.1C17.9,8.1,17.9,8.1,17.9,8.1L17.9,8.1c0-0.1,0-0.3,0-0.4c0-0.1-0.1-0.2-0.2-0.2
			c-0.3,0-0.6-0.2-0.7-0.4c-0.1-0.3,0-0.6,0.2-0.8c0.1-0.1,0.1-0.2,0-0.2c-0.2-0.2-0.3-0.4-0.5-0.5c-0.1-0.1-0.2-0.1-0.2,0
			c-0.2,0.2-0.5,0.3-0.8,0.2c-0.3-0.1-0.5-0.4-0.4-0.7c0-0.1-0.1-0.2-0.2-0.2c-0.1,0-0.2,0-0.4,0l0,0c0,0,0,0,0,0
			c-0.1,0-0.2,0-0.3,0c0,0,0,0,0,0l0,0c0,0,0,0,0,0c-0.1,0-0.2,0.1-0.2,0.2c0,0.2-0.1,0.4-0.2,0.6c-0.1,0-0.1,0.1-0.2,0.1
			c-0.3,0.1-0.6,0-0.8-0.2c-0.1-0.1-0.2-0.1-0.2,0c0,0,0,0,0,0c0,0,0,0,0,0c-0.1,0.1-0.1,0.1-0.2,0.2c0,0-0.1,0-0.1,0.1
			c0,0-0.1,0.1-0.1,0.1c0,0-0.1,0.1-0.1,0.1c0,0,0,0,0,0c0,0,0,0,0,0c-0.1,0.1,0,0.2,0,0.2c0.2,0.2,0.3,0.5,0.2,0.8
			c0,0.1-0.1,0.1-0.1,0.2c-0.1,0.2-0.4,0.2-0.6,0.2c-0.1,0-0.2,0.1-0.2,0.2c0,0,0,0,0,0l0,0c0,0,0,0,0,0c0,0.1,0,0.2,0,0.3
			c0,0.1,0,0.2,0,0.3c0,0,0,0,0,0c0,0,0,0,0,0c0,0,0,0,0,0c0,0.1,0.1,0.2,0.2,0.2c0.2,0,0.4,0.1,0.6,0.2c0,0.1,0.1,0.1,0.1,0.2
			c0.1,0.3,0,0.6-0.2,0.8c-0.1,0.1-0.1,0.2,0,0.2c0,0,0,0,0,0c0,0,0,0,0,0c0,0.1,0.1,0.1,0.1,0.1c0,0,0.1,0.1,0.1,0.1
			c0,0,0,0,0.1,0.1c0.1,0.1,0.1,0.1,0.2,0.2c0,0,0,0,0,0c0,0,0,0,0,0c0.1,0.1,0.2,0,0.2,0c0.2-0.2,0.5-0.3,0.8-0.2
			c0.1,0,0.1,0.1,0.2,0.1c0.2,0.1,0.3,0.4,0.2,0.6c0,0.1,0.1,0.2,0.2,0.2c0,0,0,0,0,0l0,0c0,0,0,0,0,0c0.1,0,0.2,0,0.3,0
			c0,0,0,0,0,0l0,0c0.1,0,0.2,0,0.4,0c0.1,0,0.2-0.1,0.2-0.2c0-0.3,0.2-0.6,0.4-0.7c0.3-0.1,0.6,0,0.8,0.2c0.1,0.1,0.2,0.1,0.2,0
			c0.2-0.2,0.4-0.3,0.5-0.5c0.1-0.1,0-0.2,0-0.2C17,9.7,16.9,9.3,17,9.1c0.1-0.3,0.4-0.4,0.7-0.4c0.1,0,0.2-0.1,0.2-0.2
			C17.9,8.4,17.9,8.3,17.9,8.1L17.9,8.1C17.9,8.1,17.9,8.1,17.9,8.1z M14.7,9.5c-0.8,0-1.4-0.6-1.4-1.4c0-0.8,0.6-1.4,1.4-1.4
			c0.8,0,1.4,0.6,1.4,1.4C16.1,8.9,15.5,9.5,14.7,9.5z"/>
		<path class="st3" d="M20.6,13.6C20.6,13.6,20.6,13.5,20.6,13.6L20.6,13.6c0-0.1,0-0.2,0-0.3c0-0.1-0.1-0.1-0.2-0.1
			c-0.2,0-0.5-0.1-0.5-0.4c-0.1-0.2,0-0.5,0.1-0.7c0.1-0.1,0.1-0.1,0-0.2c-0.1-0.2-0.3-0.3-0.4-0.4c-0.1,0-0.1,0-0.2,0
			c-0.2,0.2-0.4,0.2-0.7,0.1c-0.2-0.1-0.4-0.3-0.4-0.6c0-0.1-0.1-0.1-0.1-0.2c-0.1,0-0.2,0-0.3,0l0,0c0,0,0,0,0,0
			c-0.1,0-0.2,0-0.3,0c0,0,0,0,0,0l0,0c0,0,0,0,0,0c-0.1,0-0.1,0.1-0.1,0.2c0,0.2-0.1,0.4-0.2,0.5c0,0-0.1,0.1-0.1,0.1
			c-0.2,0.1-0.5,0-0.7-0.1c-0.1-0.1-0.1-0.1-0.2,0c0,0,0,0,0,0c0,0,0,0,0,0c-0.1,0-0.1,0.1-0.2,0.1c0,0,0,0-0.1,0.1
			c0,0-0.1,0.1-0.1,0.1c0,0-0.1,0.1-0.1,0.1c0,0,0,0,0,0c0,0,0,0,0,0c0,0.1,0,0.1,0,0.2c0.2,0.2,0.2,0.4,0.1,0.7
			c0,0.1-0.1,0.1-0.1,0.1c-0.1,0.1-0.3,0.2-0.5,0.2c-0.1,0-0.1,0.1-0.2,0.1c0,0,0,0,0,0l0,0c0,0,0,0,0,0c0,0.1,0,0.2,0,0.3
			c0,0.1,0,0.2,0,0.3c0,0,0,0,0,0l0,0c0,0,0,0,0,0c0,0.1,0.1,0.1,0.2,0.1c0.2,0,0.4,0.1,0.5,0.2c0,0,0.1,0.1,0.1,0.1
			c0.1,0.2,0,0.5-0.1,0.7c-0.1,0.1-0.1,0.1,0,0.2c0,0,0,0,0,0c0,0,0,0,0,0c0,0,0.1,0.1,0.1,0.1c0,0,0.1,0.1,0.1,0.1c0,0,0,0,0.1,0.1
			c0,0,0.1,0.1,0.2,0.1c0,0,0,0,0,0c0,0,0,0,0,0c0.1,0,0.1,0,0.2,0c0.2-0.2,0.4-0.2,0.7-0.1c0.1,0,0.1,0.1,0.1,0.1
			c0.1,0.1,0.2,0.3,0.2,0.5c0,0.1,0.1,0.1,0.1,0.2c0,0,0,0,0,0l0,0c0,0,0,0,0,0c0.1,0,0.2,0,0.3,0c0,0,0,0,0,0l0,0
			c0.1,0,0.2,0,0.3,0c0.1,0,0.1-0.1,0.1-0.2c0-0.2,0.1-0.5,0.4-0.6c0.2-0.1,0.5,0,0.7,0.1c0.1,0.1,0.1,0.1,0.2,0
			c0.2-0.1,0.3-0.3,0.4-0.4c0-0.1,0-0.1,0-0.2c-0.2-0.2-0.2-0.4-0.1-0.7c0.1-0.2,0.3-0.4,0.5-0.4c0.1,0,0.2-0.1,0.2-0.1
			C20.6,13.8,20.6,13.7,20.6,13.6L20.6,13.6C20.6,13.6,20.6,13.6,20.6,13.6z M17.9,14.7c-0.6,0-1.1-0.5-1.2-1.1
			c0-0.6,0.5-1.1,1.2-1.1c0.6,0,1.2,0.5,1.2,1.1C19.1,14.2,18.6,14.7,17.9,14.7z"/>
	</g>
</g>
</svg>
