<?xml version="1.0" encoding="utf-8"?>
<!-- Generator: Adobe Illustrator 19.0.1, SVG Export Plug-In . SVG Version: 6.00 Build 0)  -->
<svg version="1.1" id="Слой_1" xmlns="http://www.w3.org/2000/svg" xmlns:xlink="http://www.w3.org/1999/xlink" x="0px" y="0px"
	 viewBox="0 0 7.8 8" style="enable-background:new 0 0 7.8 8;" xml:space="preserve">
<style type="text/css">
	.st0{opacity:0;fill:#FFFFFF;}
	.st1{fill:#323332;}
	.st2{fill:#FFFFFF;}
</style>
<g>
	<g>
		<g>
			<path class="st0" d="M7.8,6.6C7.8,7.4,7.2,8,6.5,8H1.4C0.6,8,0,7.4,0,6.6V1.4C0,0.6,0.6,0,1.4,0h5.1c0.8,0,1.4,0.6,1.4,1.4V6.6z"
				/>
			<g>
				<g>
					<path class="st1" d="M6.8,5.9L6.1,6.6L4.3,4.8C4.1,4.6,4.8,3.9,5,4.1L6.8,5.9z"/>
				</g>
				<g>
					<path class="st1" d="M3.6,5.3c-0.5,0-1-0.2-1.3-0.6c-0.7-0.7-0.7-1.9,0-2.7c0.4-0.4,0.8-0.6,1.3-0.6c0.5,0,1,0.2,1.3,0.6
						c0.7,0.7,0.7,1.9,0,2.7C4.6,5.2,4.2,5.3,3.6,5.3z M3.6,2.5c-0.3,0-0.5,0.1-0.7,0.3c-0.4,0.4-0.4,1,0,1.4
						c0.2,0.2,0.4,0.3,0.7,0.3c0.3,0,0.5-0.1,0.7-0.3c0.4-0.4,0.4-1,0-1.4C4.2,2.6,3.9,2.5,3.6,2.5z"/>
				</g>
				<path class="st2" d="M3.6,2.5c0.3,0,0.5,0.1,0.7,0.3c0.4,0.4,0.4,1,0,1.4C4.2,4.4,3.9,4.5,3.6,4.5c-0.3,0-0.5-0.1-0.7-0.3
					c-0.4-0.4-0.4-1,0-1.4C3.1,2.6,3.4,2.5,3.6,2.5"/>
			</g>
		</g>
	</g>
	<g>
		<g>
			<g>
				<g>
					<path class="st2" d="M-4.2,6.6C-4.2,7.4-4.8,8-5.5,8h-5.1C-11.4,8-12,7.4-12,6.6V1.4c0-0.7,0.6-1.4,1.4-1.4h5.1
						c0.7,0,1.4,0.6,1.4,1.4V6.6z"/>
				</g>
			</g>
		</g>
		<path class="st1" d="M-6.9,1.6l-1,1c-0.3,0.3-0.3,0.7,0,1l-0.2,0.2c-0.3-0.3-0.8-0.2-1,0l-1,1c-0.3,0.3-0.3,0.8,0,1.1l0.3,0.3
			c0.3,0.3,0.8,0.3,1.1,0l1-1c0.3-0.3,0.3-0.7,0-1l0.2-0.2c0.3,0.3,0.8,0.2,1,0l1-1c0.3-0.3,0.3-0.8,0-1.1l-0.3-0.3
			C-6.1,1.3-6.6,1.3-6.9,1.6z M-8.3,5l-1,1c-0.1,0.1-0.2,0.1-0.3,0l-0.3-0.3c-0.1-0.1-0.1-0.2,0-0.3l1-1c0.1-0.1,0.2-0.1,0.2,0
			l-0.2,0.2c-0.1,0.1-0.1,0.3,0,0.4C-8.7,5-8.5,5-8.4,4.9l0.2-0.2C-8.2,4.8-8.2,4.9-8.3,5z M-5.9,2.3c0.1,0.1,0.1,0.2,0,0.3l-1,1
			c-0.1,0.1-0.2,0.1-0.2,0L-7,3.5c0.1-0.1,0.1-0.3,0-0.4C-7.1,3-7.3,3-7.4,3.1l-0.2,0.2c0-0.1,0-0.2,0-0.2l1-1
			c0.1-0.1,0.2-0.1,0.3,0L-5.9,2.3z"/>
	</g>
</g>
</svg>
