<?xml version="1.0" encoding="utf-8"?>
<svg version="1.1" xmlns="http://www.w3.org/2000/svg" xmlns:xlink="http://www.w3.org/1999/xlink" x="0px" y="0px"
	 viewBox="0 0 25.7 25.7" style="enable-background:new 0 0 25.7 25.7;" xml:space="preserve">
<style type="text/css">
	.st0{opacity:0;fill:#323332;}
	.st1{fill:#FFFFFF;}
</style>
<g>
	<path class="st0" d="M0,22c0,2,1.7,3.7,3.7,3.7H22c2,0,3.7-1.7,3.7-3.7V3.7C25.7,1.7,24,0,22,0H3.7C1.7,0,0,1.7,0,3.7V22z"/>
	<g>
		<g>
			<path class="st1" d="M13.5,15.6v-1.2C13.4,14.8,13.4,15.2,13.5,15.6z"/>
			<path class="st1" d="M10.5,16.3c0.3,0.1,0.6,0.1,0.9,0.2c-0.1-0.3-0.2-0.6-0.2-0.9c-0.4-0.1-0.8-0.2-1.1-0.3
				c-0.2-0.7-0.4-1.6-0.4-2.4h1.9c0.1-0.3,0.3-0.6,0.5-0.8H9.8c0-0.9,0.2-1.7,0.4-2.5c0.7-0.2,1.6-0.4,2.5-0.4v2.4
				c0.3-0.2,0.5-0.5,0.8-0.6V9.2c0.9,0,1.7,0.2,2.4,0.4c0.1,0.2,0.1,0.4,0.2,0.7c0.3,0,0.6,0,0.9,0.1c0-0.1-0.1-0.3-0.1-0.4
				c0.6,0.3,2.3,1.3,3.1,2.6c0,0,0-0.1,0-0.1c0-3.8-3.1-6.9-6.9-6.9c0,0,0,0,0,0c0,0,0,0,0,0c0,0,0,0,0,0c-3.7,0-6.6,2.9-6.8,6.5
				c0,0.1,0,0.2,0,0.3s0,0.2,0,0.3c0.2,3.6,3.2,6.5,6.8,6.5c0,0,0,0,0,0c0,0,0,0,0,0c0,0,0,0,0,0c0.3,0,0.7,0,1-0.1
				C13.6,19.1,11.3,18.4,10.5,16.3z M18.6,10c-0.5-0.4-1.2-0.8-2-1.1c-0.3-0.8-0.6-1.4-1.1-2C16.9,7.6,18,8.7,18.6,10z M13.5,6.5
				c0.8,0.2,1.6,1,2.1,2.2c-0.7-0.1-1.3-0.2-2.1-0.3V6.5z M12.7,6.5v1.9c-0.7,0-1.5,0.1-2.1,0.3C11.1,7.5,11.8,6.7,12.7,6.5z
				 M10.6,7c-0.4,0.5-0.8,1.2-1,2c-0.8,0.3-1.4,0.6-1.9,1C8.2,8.7,9.2,7.6,10.6,7z M9.2,10c-0.2,0.7-0.2,1.4-0.3,2.1H7
				C7.2,11.3,8.1,10.5,9.2,10z M8.9,12.9c0,0.7,0.1,1.4,0.3,2.1c-1.1-0.5-1.9-1.3-2.2-2.1H8.9z M7.6,15c0.5,0.4,1.2,0.8,1.9,1
				c0.3,0.8,0.6,1.4,1,2C9.2,17.4,8.2,16.3,7.6,15z"/>
		</g>
		<g>
			<g>
				<path class="st1" d="M21.4,19c0.4,0.4,0.4,1,0,1.4l0,0c-0.4,0.4-1,0.4-1.4,0l-2.8-2.8c-0.4-0.4,1-1.8,1.4-1.4L21.4,19z"/>
			</g>
			<g>
				<path class="st1" d="M15.9,18.7c-1,0-1.9-0.4-2.6-1.1c-1.4-1.4-1.4-3.8,0-5.2c0.7-0.7,1.6-1.1,2.6-1.1c1,0,1.9,0.4,2.6,1.1
					c1.4,1.4,1.4,3.8,0,5.2C17.8,18.3,16.9,18.7,15.9,18.7z M15.9,13c-0.5,0-1,0.2-1.4,0.6c-0.8,0.8-0.8,2,0,2.8
					c0.4,0.4,0.9,0.6,1.4,0.6c0.5,0,1-0.2,1.4-0.6c0.8-0.8,0.8-2,0-2.8C16.9,13.2,16.4,13,15.9,13z"/>
			</g>
		</g>
	</g>
	<g>
		<rect x="-15.1" y="40.7" style="fill:none;" width="64.2" height="22.4"/>
		<g>
		</g>
	</g>
</g>
</svg>
